<svg xmlns="http://www.w3.org/2000/svg" xmlns:xlink="http://www.w3.org/1999/xlink" viewBox="0 0 434.51 434.51"><defs><style>.cls-1{fill:url(#무제_그라디언트_24);}.cls-2{fill:none;stroke:#fff;stroke-linecap:round;stroke-linejoin:round;stroke-width:7px;}</style><linearGradient id="무제_그라디언트_24" y1="217.25" x2="434.51" y2="217.25" gradientUnits="userSpaceOnUse"><stop offset="0.01" stop-color="#ffce00"/><stop offset="0.04" stop-color="#fc0"/><stop offset="0.99" stop-color="#ff9500"/></linearGradient></defs><title>앱</title><g id="레이어_2" data-name="레이어 2"><g id="레이어_1-2" data-name="레이어 1"><rect class="cls-1" width="434.51" height="434.51" rx="68.69"/><path class="cls-2" d="M327.17,163.59c-1.85-9.76-5.53-10.87-5.53-10.87-4.82,12.17-14.76,27.17-21.06,36.1a37.43,37.43,0,0,1-14,12c-20.34,10-33.37,14.94-41.49,17.3-6.58,1.92-11.71.21-18.77-4.31a24.42,24.42,0,0,1-5.08-4.48c-9.51-11.89,1.84-49,9-101,6.2-44.88,39.21-38.22,48.1-35.57,1.62.49,3.25.91,4.91,1.27,11.8,2.56,57.92,15.56,52.36,61.1a23.9,23.9,0,0,1-1,4.44Z"/><path class="cls-2" d="M327.17,163.59s-7.57,8.81-14.93,7.44"/><path class="cls-2" d="M414.32,250.93c-45.88-165.28-89.55-173-89.55-173S283.87,51.38,214.22,54.7c-53.21,2.53-70,33.13-74.91,47.43a9.8,9.8,0,0,1-9.45,6.63c-23.29-.47-77.77,7.27-95,9.81a10.91,10.91,0,0,0-8.23,6.06c-7.84,16.29-23.32,68,60.08,120.49A54.34,54.34,0,0,0,99.6,251c10.76,3.31,32.31,8.92,53,8.29a4.83,4.83,0,0,1,4.06,2c6.66,9.19,32.58,49,49.81,132.76"/><path class="cls-2" d="M153.34,259.36s31.77,2.62,83.54-21.7"/><path class="cls-2" d="M20.19,149.65s45.49,7.94,38.93-34.48"/></g></g></svg>